Coordinates
version=1
nRows=16
nColumns=40
inDegrees=yes

Units are S.I. units (second, meters, Newtons, ...)
If the header above contains a line with 'inDegrees', this indicates whether rotational values are in degrees (yes) or radians (no).

endheader
time	pelvis_tilt	pelvis_list	pelvis_rotation	pelvis_tx	pelvis_ty	pelvis_tz	hip_flexion_r	hip_adduction_r	hip_rotation_r	knee_angle_r	knee_angle_r_beta	ankle_angle_r	subtalar_angle_r	mtp_angle_r	hip_flexion_l	hip_adduction_l	hip_rotation_l	knee_angle_l	knee_angle_l_beta	ankle_angle_l	subtalar_angle_l	mtp_angle_l	lumbar_extension	lumbar_bending	lumbar_rotation	arm_flex_r	arm_add_r	arm_rot_r	elbow_flex_r	pro_sup_r	wrist_flex_r	wrist_dev_r	arm_flex_l	arm_add_l	arm_rot_l	elbow_flex_l	pro_sup_l	wrist_flex_l	wrist_dev_l
      0.75500000	    -15.60952202	      0.86445260	     -3.25010970	      0.18006840	      0.70350429	     -1.19887069	     64.93243330	    -35.81864863	    -10.51839920	     78.73090513	      1.37411352	     20.30323522	      0.55600631	      0.00000000	     60.56914140	    -45.24743389	    -20.14169436	     77.60437546	      1.35445187	     19.18224476	     15.88646448	      0.00000000	    -12.23279669	     -1.26848009	      3.01386695	     44.96793973	    -15.00783552	     44.96793973	     75.00035718	     45.00000020	      0.00000000	      0.00000000	     44.96793973	    -15.00783552	     44.96793973	     75.00035718	     45.00000020	      0.00000000	      0.00000000
      0.76000000	    -15.47185639	      0.85312493	     -3.26645354	      0.17994584	      0.70174464	     -1.19895832	     65.10040141	    -35.95877849	    -10.39109198	     79.12946121	      1.38106963	     20.30389543	      0.45686862	      0.00000000	     60.75522310	    -45.41006732	    -19.95728240	     78.02215227	      1.36174345	     19.19379486	     15.66171548	      0.00000000	    -12.58353727	     -1.28469182	      2.96963629	     44.96806022	    -15.00778931	     44.96806022	     75.00035532	     45.00000020	      0.00000000	      0.00000000	     44.96806022	    -15.00778931	     44.96806022	     75.00035532	     45.00000020	      0.00000000	      0.00000000
      0.76500000	    -15.66084272	      0.83285491	     -3.25489415	      0.17969589	      0.69891480	     -1.19901188	     65.68572193	    -36.08284472	    -10.17170073	     79.65674683	      1.39027250	     20.64192317	      0.80769462	      0.00000000	     61.48020877	    -45.54870125	    -19.47161598	     78.55777684	      1.37109186	     19.49236765	     15.97390346	      0.00000000	    -12.48448701	     -1.25165579	      2.98072081	     44.96820418	    -15.00773355	     44.96820418	     75.00035302	     45.00000020	      0.00000000	      0.00000000	     44.96820418	    -15.00773355	     44.96820418	     75.00035302	     45.00000020	      0.00000000	      0.00000000
      0.77000000	    -15.51027103	      0.82249260	     -3.26556200	      0.17961551	      0.69709743	     -1.19906172	     65.85144406	    -36.23044464	    -10.04838958	     80.08479510	      1.39774336	     20.64172026	      0.71903538	      0.00000000	     61.66423112	    -45.72467240	    -19.29218850	     79.00243865	      1.37885267	     19.50100869	     15.74864041	      0.00000000	    -12.83348041	     -1.25903627	      2.92143771	     44.96832245	    -15.00768838	     44.96832245	     75.00035123	     45.00000020	      0.00000000	      0.00000000	     44.96832245	    -15.00768838	     44.96832245	     75.00035123	     45.00000020	      0.00000000	      0.00000000
      0.77500000	    -15.77104810	      0.74205082	     -3.11495791	      0.17930537	      0.69399748	     -1.19949167	     66.43905610	    -36.48001878	     -9.95381774	     80.62338181	      1.40714347	     20.97441230	      1.06325424	      0.00000000	     62.67420266	    -45.73139251	    -18.54567960	     79.58101630	      1.38895076	     19.79774444	     15.99532829	      0.00000000	    -12.64686839	     -1.12917331	      2.72074670	     44.96913667	    -15.00738807	     44.96913667	     75.00034007	     45.00000021	      0.00000000	      0.00000000	     44.96913667	    -15.00738807	     44.96913667	     75.00034007	     45.00000021	      0.00000000	      0.00000000
      0.78000000	    -15.86667129	      0.62257356	     -3.09351076	      0.17910417	      0.69140795	     -1.19967581	     66.82113893	    -36.59305247	     -9.91432917	     81.11354897	      1.41569850	     21.15721714	      1.25646189	      0.00000000	     63.39484789	    -45.91639436	    -17.98391402	     80.11255007	      1.39822777	     19.90770402	     15.99906518	      0.00000000	    -12.67673343	     -0.96122513	      2.71603701	     44.96991779	    -15.00710521	     44.96991779	     75.00032994	     45.00000021	      0.00000000	      0.00000000	     44.96991779	    -15.00710521	     44.96991779	     75.00032994	     45.00000021	      0.00000000	      0.00000000
      0.78500000	    -15.91719831	      0.55747544	     -3.00900119	      0.17895539	      0.68895039	     -1.19996743	     67.15532889	    -36.80054704	     -9.84321293	     81.57882084	      1.42381902	     21.35977674	      1.39975548	      0.00000000	     64.01312022	    -45.99060368	    -17.47163516	     80.61463977	      1.40699089	     20.09696088	     16.06071716	      0.00000000	    -12.75589233	     -0.88315636	      2.54562433	     44.97067242	    -15.00683590	     44.97067242	     75.00032056	     45.00000022	      0.00000000	      0.00000000	     44.97067242	    -15.00683590	     44.97067242	     75.00032056	     45.00000022	      0.00000000	      0.00000000
      0.79000000	    -15.94756093	      0.49053505	     -2.98468652	      0.17884355	      0.68652650	     -1.20013095	     67.49401386	    -36.95071834	     -9.74162487	     82.05315960	      1.43209780	     21.52994187	      1.56525546	      0.00000000	     64.56812635	    -46.14815650	    -17.03445818	     81.11624389	      1.41574553	     20.22141910	     16.09411692	      0.00000000	    -12.85680269	     -0.78531608	      2.53764856	     44.97142135	    -15.00657261	     44.97142135	     75.00031165	     45.00000022	      0.00000000	      0.00000000	     44.97142135	    -15.00657261	     44.97142135	     75.00031165	     45.00000022	      0.00000000	      0.00000000
      0.79500000	    -15.99389148	      0.43249837	     -2.99002857	      0.17872842	      0.68398387	     -1.20019988	     67.87906317	    -37.06515527	     -9.59822212	     82.53783010	      1.44055689	     21.70934080	      1.71584669	      0.00000000	     65.14428802	    -46.33216058	    -16.59629950	     81.63693686	      1.42483334	     20.35628272	     16.16206644	      0.00000000	    -12.92708332	     -0.71267668	      2.57338384	     44.97217891	    -15.00630842	     44.97217891	     75.00030282	     45.00000023	      0.00000000	      0.00000000	     44.97217891	    -15.00630842	     44.97217891	     75.00030282	     45.00000023	      0.00000000	      0.00000000
      0.80000000	    -16.02131234	      0.41224815	     -2.95196653	      0.17859632	      0.68152439	     -1.20035203	     68.25222920	    -37.24530983	     -9.43987164	     83.01172281	      1.44882788	     21.88521898	      1.82025047	      0.00000000	     65.66138544	    -46.43823793	    -16.19803480	     82.12647836	      1.43337745	     20.53447900	     16.23137206	      0.00000000	    -13.01855835	     -0.69730978	      2.45936047	     44.97292635	    -15.00605115	     44.97292635	     75.00029443	     45.00000023	      0.00000000	      0.00000000	     44.97292635	    -15.00605115	     44.97292635	     75.00029443	     45.00000023	      0.00000000	      0.00000000
      0.80500000	    -16.04220220	      0.39844508	     -2.96100456	      0.17852670	      0.67901934	     -1.20038254	     68.65593333	    -37.38127457	     -9.23322054	     83.51211533	      1.45756138	     22.08484846	      2.00829389	      0.00000000	     66.13441231	    -46.60592341	    -15.85402293	     82.61716924	      1.44194162	     20.67990192	     16.31889770	      0.00000000	    -13.11478430	     -0.68186052	      2.48501354	     44.97363696	    -15.00581024	     44.97363696	     75.00028680	     45.00000023	      0.00000000	      0.00000000	     44.97363696	    -15.00581024	     44.97363696	     75.00028680	     45.00000023	      0.00000000	      0.00000000
      0.81000000	    -16.05907843	      0.40156265	     -2.94962338	      0.17845240	      0.67654265	     -1.20046798	     69.05197944	    -37.54428695	     -9.01954978	     83.98734657	      1.46585573	     22.27878492	      2.15370631	      0.00000000	     66.59458026	    -46.73914184	    -15.52202114	     83.10740833	      1.45049791	     20.84473684	     16.40590607	      0.00000000	    -13.20859449	     -0.69110849	      2.45001815	     44.97431508	    -15.00558322	     44.97431508	     75.00027977	     45.00000023	      0.00000000	      0.00000000	     44.97431508	    -15.00558322	     44.97431508	     75.00027977	     45.00000023	      0.00000000	      0.00000000
      0.81500000	    -16.00760720	      0.40591899	     -2.78701309	      0.17836250	      0.67424428	     -1.20089319	     69.33186901	    -37.86979980	     -8.88035002	     84.46725053	      1.47423163	     22.38456083	      1.99589740	      0.00000000	     67.04171734	    -46.67017856	    -15.11280993	     83.58040777	      1.45875331	     21.01882833	     16.13276746	      0.00000000	    -13.40346616	     -0.70398551	      2.12795988	     44.97499056	    -15.00536002	     44.97499056	     75.00027304	     45.00000024	      0.00000000	      0.00000000	     44.97499056	    -15.00536002	     44.97499056	     75.00027304	     45.00000024	      0.00000000	      0.00000000
      0.82000000	    -16.08837106	      0.37310719	     -2.90960370	      0.17834605	      0.67150999	     -1.20065688	     69.81790835	    -37.87876280	     -8.64047592	     84.96415706	      1.48290429	     22.66728673	      2.46411941	      0.00000000	     67.57300575	    -47.00504129	    -14.77362709	     84.09210971	      1.46768419	     21.16266842	     16.57491040	      0.00000000	    -13.39043219	     -0.66290717	      2.37019573	     44.97561218	    -15.00515794	     44.97561218	     75.00026712	     45.00000024	      0.00000000	      0.00000000	     44.97561218	    -15.00515794	     44.97561218	     75.00026712	     45.00000024	      0.00000000	      0.00000000
      0.82500000	    -16.11376631	      0.36095227	     -2.80575567	      0.17826250	      0.66897694	     -1.20097248	     70.18369105	    -38.11630941	     -8.46594011	     85.42783834	      1.49099705	     22.87566443	      2.41133119	      0.00000000	     68.11735278	    -47.00095340	    -14.31590977	     84.57572351	      1.47612484	     21.40805788	     16.56816686	      0.00000000	    -13.46724424	     -0.65355705	      2.13576491	     44.97629849	    -15.00493629	     44.97629849	     75.00026070	     45.00000024	      0.00000000	      0.00000000	     44.97629849	    -15.00493629	     44.97629849	     75.00026070	     45.00000024	      0.00000000	      0.00000000
      0.83000000	    -16.16713338	      0.30172212	     -2.78780159	      0.17822422	      0.66630734	     -1.20108660	     70.58043325	    -38.25859355	     -8.31252582	     85.92147615	      1.49961266	     23.07484585	      2.64959911	      0.00000000	     68.71973532	    -47.16656160	    -13.85540365	     85.08332409	      1.48498414	     21.55779824	     16.73744242	      0.00000000	    -13.49808074	     -0.57727854	      2.11143764	     44.97699648	    -15.00471433	     44.97699648	     75.00025446	     45.00000024	      0.00000000	      0.00000000	     44.97699648	    -15.00471433	     44.97699648	     75.00025446	     45.00000024	      0.00000000	      0.00000000
